<?xml version="1.0" encoding="UTF-8" standalone="no" ?>
<!DOCTYPE svg PUBLIC "-//W3C//DTD SVG 1.1//EN" "http://www.w3.org/Graphics/SVG/1.1/DTD/svg11.dtd">
<svg xmlns="http://www.w3.org/2000/svg" xmlns:xlink="http://www.w3.org/1999/xlink" version="1.1" width="500" height="500" viewBox="0 0 2000 2000" xml:space="preserve">
<defs>
<linearGradient spreadMethod="pad" id="SVGID_289" x1="0%" y1="0%" x2="100%" y2="100%">
<stop offset="0%" style="stop-color:rgb(255, 168, 0);stop-opacity:1;" />
	<stop offset="100%" style="stop-color:rgb(255, 0, 0);stop-opacity:1;" />
</linearGradient>
</defs>
<rect transform="matrix(4 0 0 4 0 0) translate(250,250)" x="-250" y="-250" width="500" height="500" fill="url(#SVGID_289)"></rect>
<g transform="matrix(0.13 0 0 -0.13 -793.74 49.99)"  >
<path style="stroke: none; stroke-width: 1; stroke-dasharray: none; stroke-linecap: butt; stroke-dashoffset: 0; stroke-linejoin: miter; stroke-miterlimit: 4; fill: rgb(255,255,255); fill-rule: nonzero; opacity: 1;"  transform=" translate(-9443.65, -14590)" d="M 7480 20601 c -935 -374 -1946 -947 -2783 -1578 c -326 -247 -665 -529 -666 -555 c -1 -9 86 -110 192 -225 c 826 -897 1676 -1906 2493 -2963 c 264 -342 613 -805 620 -825 c 15 -38 -1858 -1889 -3343 -3304 c -222 -211 -403 -386 -403 -389 c 0 -12 147 -272 243 -432 c 229 -377 475 -720 741 -1030 c 164 -191 508 -520 543 -520 c 11 0 388 294 653 509 c 755 612 1679 1418 2897 2528 l 332 302 l 264 -402 c 145 -221 380 -582 522 -802 c 456 -707 1511 -2349 1530 -2383 c 11 -17 23 -32 27 -32 c 20 0 564 282 863 448 c 517 286 1062 638 1395 901 c 227 179 530 464 530 498 c 0 35 -614 1203 -1043 1983 c -355 647 -973 1742 -1160 2055 l -36 60 l 442 445 c 741 746 1188 1216 1997 2100 c 472 516 960 1059 967 1077 c 9 22 -189 354 -365 613 c -445 656 -1063 1305 -1662 1747 c -137 101 -367 253 -383 253 c -8 0 -184 -231 -392 -512 c -488 -661 -1303 -1750 -1525 -2038 c -254 -330 -692 -880 -755 -948 c -9 -10 -36 25 -130 165 c -184 278 -607 898 -834 1223 c -672 967 -1515 2109 -1556 2109 c -11 0 -108 -35 -215 -78 z" stroke-linecap="round" />
</g>
<g transform="matrix(0.44 0 0 0.44 996.71 981.76)"  >
<g style=""   >
		<g transform="matrix(0.13 0 0 -0.13 800.06 -54.77)"  >
<path style="stroke: none; stroke-width: 1; stroke-dasharray: none; stroke-linecap: butt; stroke-dashoffset: 0; stroke-linejoin: miter; stroke-miterlimit: 4; fill: rgb(255,255,255); fill-rule: nonzero; opacity: 1;"  transform=" translate(-22320.48, -16730.75)" d="M 21335 24243 c -309 -10 -907 -74 -1245 -134 c -1073 -189 -2019 -487 -2982 -939 l -116 -55 l -6 -70 c -29 -349 -46 -3069 -27 -4335 c 33 -2165 107 -3844 251 -5695 c 88 -1122 236 -2611 262 -2627 c 7 -4 103 -60 213 -124 c 978 -565 2032 -916 3060 -1019 c 537 -53 1165 -39 1730 41 c 1254 177 2337 660 3270 1459 c 712 610 1229 1299 1544 2057 c 263 632 401 1336 401 2043 c 0 695 -193 1251 -616 1779 c -429 535 -1041 940 -1824 1207 c -96 33 -181 62 -188 64 c -8 3 38 43 105 93 c 447 334 801 720 1052 1146 c 271 461 424 955 472 1524 c 17 206 6 646 -20 824 c -122 824 -515 1446 -1210 1917 c -302 204 -614 353 -1031 491 c -597 199 -1263 309 -2105 350 c -184 9 -761 11 -990 3 z m 130 -2258 c 166 -18 309 -47 427 -86 c 504 -168 807 -514 908 -1036 c 72 -373 39 -872 -82 -1253 c -205 -644 -671 -1134 -1337 -1405 c -155 -63 -517 -175 -566 -175 c -4 0 -4 53 -1 118 c 4 64 13 252 21 417 c 39 788 88 1515 160 2380 c 44 530 85 999 90 1031 l 5 31 l 123 -4 c 67 -2 181 -10 252 -18 z m 740 -6266 c 672 -68 1134 -368 1346 -873 c 184 -441 178 -1118 -15 -1672 c -197 -565 -604 -1100 -1033 -1358 c -381 -229 -824 -275 -1291 -136 c -107 32 -304 111 -401 160 l -59 29 l -8 128 c -11 165 -12 3244 -1 3383 l 9 106 l 141 51 c 316 114 610 180 877 197 c 79 5 318 -3 435 -15 z" stroke-linecap="round" />
</g>
		<g transform="matrix(0.13 0 0 -0.13 -916.85 230.67)"  >
<path style="stroke: none; stroke-width: 1; stroke-dasharray: none; stroke-linecap: butt; stroke-dashoffset: 0; stroke-linejoin: miter; stroke-miterlimit: 4; fill: rgb(255,255,255); fill-rule: nonzero; opacity: 1;"  transform=" translate(-9443.65, -14590)" d="M 7480 20601 c -935 -374 -1946 -947 -2783 -1578 c -326 -247 -665 -529 -666 -555 c -1 -9 86 -110 192 -225 c 826 -897 1676 -1906 2493 -2963 c 264 -342 613 -805 620 -825 c 15 -38 -1858 -1889 -3343 -3304 c -222 -211 -403 -386 -403 -389 c 0 -12 147 -272 243 -432 c 229 -377 475 -720 741 -1030 c 164 -191 508 -520 543 -520 c 11 0 388 294 653 509 c 755 612 1679 1418 2897 2528 l 332 302 l 264 -402 c 145 -221 380 -582 522 -802 c 456 -707 1511 -2349 1530 -2383 c 11 -17 23 -32 27 -32 c 20 0 564 282 863 448 c 517 286 1062 638 1395 901 c 227 179 530 464 530 498 c 0 35 -614 1203 -1043 1983 c -355 647 -973 1742 -1160 2055 l -36 60 l 442 445 c 741 746 1188 1216 1997 2100 c 472 516 960 1059 967 1077 c 9 22 -189 354 -365 613 c -445 656 -1063 1305 -1662 1747 c -137 101 -367 253 -383 253 c -8 0 -184 -231 -392 -512 c -488 -661 -1303 -1750 -1525 -2038 c -254 -330 -692 -880 -755 -948 c -9 -10 -36 25 -130 165 c -184 278 -607 898 -834 1223 c -672 967 -1515 2109 -1556 2109 c -11 0 -108 -35 -215 -78 z" stroke-linecap="round" />
</g>
</g>
</g>
</svg>



