<?xml version="1.0" standalone="no"?>
<!DOCTYPE svg PUBLIC "-//W3C//DTD SVG 20010904//EN"
 "http://www.w3.org/TR/2001/REC-SVG-20010904/DTD/svg10.dtd">
<svg version="1.0" xmlns="http://www.w3.org/2000/svg"
 width="700.000000pt" height="700.000000pt" viewBox="0 0 700.000000 700.000000"
 preserveAspectRatio="xMidYMid meet">
<metadata>
Created by potrace 1.14, written by Peter Selinger 2001-2017
</metadata>
<g transform="translate(0.000000,700.000000) scale(0.100000,-0.100000)"
fill="#000000" stroke="none">
<path d="M4430 5189 c-36 -5 -92 -14 -125 -20 -33 -6 -71 -13 -85 -15 -118
-21 -369 -103 -516 -169 l-61 -27 -3 -82 c-9 -285 1 -1265 15 -1501 2 -27 6
-113 10 -190 4 -77 8 -156 10 -175 2 -19 6 -80 9 -135 4 -55 9 -116 11 -135 2
-19 7 -69 10 -110 9 -117 16 -193 20 -220 2 -14 6 -54 10 -90 3 -36 8 -73 11
-82 6 -21 263 -148 369 -182 252 -81 446 -97 730 -61 58 8 227 52 288 76 90
35 230 113 310 173 225 166 390 395 453 631 41 151 52 363 25 465 -18 65 -58
147 -101 205 -43 58 -145 154 -187 175 -15 8 -30 17 -33 20 -11 11 -137 68
-177 80 -37 11 -59 30 -35 30 20 0 174 162 216 227 45 70 89 170 101 230 22
110 27 231 11 323 -26 152 -116 292 -247 381 -54 36 -156 90 -195 102 -129 39
-173 50 -259 64 -113 18 -480 26 -585 12z m235 -485 c47 -11 117 -49 149 -80
40 -40 64 -92 75 -161 18 -115 4 -215 -45 -319 -56 -119 -164 -208 -313 -259
-66 -23 -70 -21 -66 28 2 23 7 101 10 172 3 72 8 150 10 175 2 25 6 83 10 130
3 47 7 105 10 130 2 25 7 76 10 114 3 38 8 73 11 78 6 10 87 5 139 -8z m181
-1350 c111 -32 190 -110 218 -216 18 -67 13 -214 -9 -288 -45 -147 -169 -298
-280 -340 -75 -28 -181 -24 -267 10 l-58 23 -1 96 c-3 350 0 674 8 681 12 11
101 38 158 48 65 10 167 4 231 -14z"/>
<path d="M2715 4371 c-28 -36 -55 -72 -62 -81 -7 -8 -30 -40 -52 -70 -22 -30
-44 -60 -48 -65 -4 -6 -55 -73 -113 -150 -58 -77 -110 -147 -117 -155 -74 -93
-126 -156 -132 -158 -4 -1 -47 55 -94 125 -48 71 -100 146 -115 168 -16 22
-44 63 -63 90 -115 167 -260 355 -274 355 -31 0 -243 -100 -373 -176 -91 -54
-267 -171 -295 -197 -6 -7 -33 -29 -60 -50 -43 -35 -58 -60 -39 -69 17 -7 260
-285 392 -448 16 -19 51 -62 78 -95 79 -98 222 -289 222 -297 0 -7 -370 -374
-658 -654 l-143 -139 50 -84 c28 -46 70 -109 93 -140 54 -73 169 -191 185
-191 10 0 179 129 229 175 6 5 35 30 65 55 89 74 302 262 329 289 15 15 44 41
65 60 22 18 61 53 87 77 26 24 51 44 56 44 7 0 295 -434 337 -508 6 -10 45
-72 89 -139 l78 -122 107 56 c191 101 392 235 464 311 l28 30 -37 73 c-46 93
-194 368 -266 494 -19 33 -37 67 -41 75 -4 8 -13 24 -20 35 -7 11 -27 47 -46
80 -19 33 -42 74 -52 91 l-18 30 150 155 c83 84 192 198 243 253 50 54 111
121 136 147 70 75 161 178 182 205 l20 24 -42 68 c-74 118 -165 229 -269 326
-24 22 -49 46 -55 52 -6 6 -43 33 -82 61 l-70 50 -49 -66z"/>
</g>
</svg>
